<svg width="178" height="43" viewBox="0 0 178 43" fill="none" xmlns="http://www.w3.org/2000/svg">
<path d="M69.0248 32.3846H64.1725L62.2429 27.3799H53.4096L51.5845 32.3846H46.8542L55.4611 10.3491H60.1783L69.0248 32.3846ZM60.8099 23.6689L57.7653 15.4932L54.7816 23.6689H60.8099Z" fill="white"/>
<path d="M73.9902 32.3846L67.6744 14.7571H71.5423L76.0156 27.8024L80.3452 14.7571H84.1303L77.8014 32.3846H73.9902Z" fill="white"/>
<path d="M101.645 32.3846H97.7636L96.2217 28.3817H89.1567L87.6976 32.3846H83.9125L90.7988 14.7571H94.5709L101.645 32.3846ZM95.0718 25.4111L92.6369 18.8689L90.25 25.4111H95.0718Z" fill="white"/>
<path d="M105.482 32.3846L100.207 10.3491H104.772L108.104 25.4852L112.142 10.3491H117.447L121.319 25.7422L124.712 10.3491H129.203L123.837 32.3846H119.107L114.707 15.9114L110.321 32.3846H105.482Z" fill="white"/>
<path d="M147.928 32.3849H144.047L142.505 28.3821H135.44L133.981 32.3849H130.196L137.083 14.7574H140.855L147.928 32.3849ZM141.355 25.4115L138.921 18.8692L136.534 25.4115H141.355Z" fill="white"/>
<path d="M153.726 32.3846V17.7364H148.481V14.7527H162.528V17.7364H157.297V32.3846H153.726Z" fill="white"/>
<path d="M163.644 32.3846V29.1745L172.926 17.7364H164.689V14.7527H177.625V17.5186L167.943 29.414H178V32.3846H163.644Z" fill="white"/>
<path d="M29.9237 13.1281C29.7407 11.7212 29.3792 10.3709 28.8347 9.11645C27.9331 9.68705 26.866 10.0224 25.716 10.0224C25.3066 10.0224 24.9059 9.97888 24.5182 9.90048C22.2881 9.43878 20.5241 7.70085 20.0188 5.48816C19.923 5.06565 19.8663 4.62573 19.8663 4.17273C19.8663 3.06639 20.18 2.03409 20.7157 1.14988C19.4482 0.631554 18.0979 0.27874 16.6823 0.12629C16.1379 0.0653103 15.589 0.0304642 15.0315 0.0304642C6.72956 0.0304642 0 6.76002 0 15.062C0 23.3639 6.72956 30.0935 15.0315 30.0935C23.3335 30.0935 30.063 23.3639 30.063 15.062C30.063 14.4043 30.0064 13.764 29.9237 13.1281ZM15.0272 25.8641C9.05986 25.8641 4.22503 21.0249 4.22503 15.062C4.22503 9.09903 9.06421 4.25985 15.0272 4.25985C15.2929 4.25985 15.5542 4.28163 15.8155 4.29905C15.8852 9.70883 20.2888 14.0776 25.716 14.0776C25.7378 14.0776 25.7596 14.0732 25.7814 14.0732C25.8119 14.3999 25.8293 14.7266 25.8293 15.062C25.8336 21.0293 20.9945 25.8641 15.0272 25.8641Z" fill="#ED8622"/>
<path d="M25.8903 7.8751C28.065 7.8751 29.8279 6.1122 29.8279 3.93755C29.8279 1.7629 28.065 0 25.8903 0C23.7157 0 21.9528 1.7629 21.9528 3.93755C21.9528 6.1122 23.7157 7.8751 25.8903 7.8751Z" fill="#ED8622"/>
<path d="M43.1301 25.8162C42.9471 24.4093 42.5856 23.0591 42.0411 21.8046C41.1395 22.3752 40.0724 22.7106 38.9225 22.7106C38.513 22.7106 38.1123 22.667 37.7246 22.5886C35.4945 22.1269 33.7305 20.389 33.2252 18.1763C33.1294 17.7538 33.0728 17.3139 33.0728 16.8609C33.0728 15.7546 33.3864 14.7222 33.9221 13.838C32.6546 13.3197 31.3043 12.9669 29.8887 12.8145C29.3443 12.7535 28.7955 12.7186 28.2379 12.7186C19.936 12.7186 13.2064 19.4482 13.2064 27.7501C13.2064 36.0521 19.936 42.7817 28.2379 42.7817C36.5399 42.7817 43.2695 36.0521 43.2695 27.7501C43.2695 27.0924 43.2128 26.4521 43.1301 25.8162ZM28.2379 38.5523C22.2706 38.5523 17.4358 33.7131 17.4358 27.7501C17.4358 21.7872 22.275 16.948 28.2379 16.948C28.5036 16.948 28.765 16.9698 29.0263 16.9872C29.096 22.397 33.4996 26.7658 38.9268 26.7658C38.9486 26.7658 38.9704 26.7614 38.9922 26.7614C39.0226 27.0881 39.0401 27.4148 39.0401 27.7501C39.0401 33.7174 34.2052 38.5523 28.2379 38.5523Z" fill="#ED8622"/>
<path d="M39.0967 20.5632C41.2714 20.5632 43.0343 18.8003 43.0343 16.6257C43.0343 14.451 41.2714 12.6881 39.0967 12.6881C36.9221 12.6881 35.1592 14.451 35.1592 16.6257C35.1592 18.8003 36.9221 20.5632 39.0967 20.5632Z" fill="#ED8622"/>
</svg>
